<svg xmlns="http://www.w3.org/2000/svg" width="510" height="82" fill="none"><path fill="#000" d="m40.923 34.166.088-9.475H1.973v12.136h21.175L.183 64.503l-.088 9.47h41.919V61.837h-24.06l22.969-27.671ZM90.622 41.019a15.86 15.86 0 0 0-1.179-3.757 22.93 22.93 0 0 0-8.296-9.734c-3.624-2.357-8.08-3.518-13.406-3.518a26.476 26.476 0 0 0-10.438 1.961 22.513 22.513 0 0 0-7.772 5.415 23.804 23.804 0 0 0-4.931 8.076 28.37 28.37 0 0 0-1.702 9.861 26.615 26.615 0 0 0 1.834 9.998 23.889 23.889 0 0 0 5.107 7.988 23.282 23.282 0 0 0 7.948 5.322 26.83 26.83 0 0 0 10.262 1.922c4.12.05 8.207-.753 12.003-2.357a49.977 49.977 0 0 0 9.48-5.322l-6.599-7.205a32.187 32.187 0 0 1-7.205 2.577 35.49 35.49 0 0 1-7.684.88c-3.365 0-6.246-.88-8.647-2.64-2.402-1.759-3.58-4.323-3.58-7.683h34.41c.356-1.148.605-2.326.742-3.52.133-1.347.177-2.702.133-4.055a27.113 27.113 0 0 0-.48-4.21Zm-34.265 3.884a8.305 8.305 0 0 1 .92-3.449 9.584 9.584 0 0 1 2.313-3.013 10.996 10.996 0 0 1 3.519-2.2 12.121 12.121 0 0 1 4.627-.826c2.165-.059 4.301.501 6.158 1.614a10.645 10.645 0 0 1 3.84 3.928c.397.602.694 1.265.88 1.962.2.636.302 1.3.303 1.966l-22.56.018ZM137.568 30.63a17.297 17.297 0 0 0-6.681-4.892c-2.666-1.174-5.807-1.76-9.343-1.76a22.538 22.538 0 0 0-10.002 2.138 16.798 16.798 0 0 0-3.713 2.415v-3.857H95.298v49.264h12.522V49.89c0-4.711 1.052-8.204 3.145-10.39 2.094-2.186 4.936-3.316 8.56-3.316 3.361 0 6.026.919 7.992 2.837 1.966 1.918 2.969 5.15 2.969 9.734v25.23h12.523V47.973a32.811 32.811 0 0 0-1.399-9.734 21.77 21.77 0 0 0-4.042-7.61ZM290.484 47.564a17.793 17.793 0 0 0-5.811-2.705 43.048 43.048 0 0 0-7.037-1.18l-3.361-.39c-3.079-.264-5.243-.744-6.422-1.4a3.27 3.27 0 0 1-1.79-3.052 3.96 3.96 0 0 1 2.142-3.58c1.394-.788 3.229-1.223 5.459-1.32h.783a16.5 16.5 0 0 1 3.409.392c2.543.563 4.957 1.6 7.116 3.056a13.683 13.683 0 0 1 2.794 2.358l7.116-6.633a22.751 22.751 0 0 0-8.797-6.681 29.03 29.03 0 0 0-11.744-2.441v-.044h-.787a27.517 27.517 0 0 0-7.729 1.046 20.16 20.16 0 0 0-6.377 3.053 15.022 15.022 0 0 0-4.32 4.935 13.639 13.639 0 0 0-1.575 6.633c0 4.324 1.619 7.684 4.839 9.998 3.22 2.314 7.816 3.752 13.71 4.276l2.754.308c2.75.26 4.846.74 6.285 1.438 1.443.7 2.2 1.966 2.2 3.884a3.892 3.892 0 0 1-2.138 3.712 11.383 11.383 0 0 1-5.278 1.135h-.48a28.409 28.409 0 0 1-4.631-.44 21.559 21.559 0 0 1-4.496-1.267 26.918 26.918 0 0 1-3.928-1.922 10.822 10.822 0 0 1-2.929-2.357l-7.117 6.68a17.327 17.327 0 0 0 4.064 3.885 26.206 26.206 0 0 0 5.454 2.969 36.606 36.606 0 0 0 6.51 1.918c2.358.474 4.757.708 7.161.699h.48c2.797.022 5.581-.39 8.251-1.223a18.798 18.798 0 0 0 6.246-3.228 14.33 14.33 0 0 0 3.928-4.931 13.982 13.982 0 0 0 1.399-6.114 14.886 14.886 0 0 0-1.443-6.853 13.007 13.007 0 0 0-3.91-4.614ZM312.886 24.691h-12.532v49.282h12.532V24.69ZM361.415 30.63a17.262 17.262 0 0 0-6.681-4.892c-2.639-1.174-5.806-1.76-9.343-1.76a22.785 22.785 0 0 0-9.997 2.138 16.591 16.591 0 0 0-3.713 2.415v-3.857H319.15v49.325h12.531V49.891c0-4.711 1.047-8.204 3.145-10.39s4.931-3.316 8.555-3.316c3.365 0 6.026.919 7.992 2.837 1.967 1.918 2.97 5.15 2.97 9.734v25.23h12.553V47.973a32.647 32.647 0 0 0-1.399-9.734 21.774 21.774 0 0 0-4.082-7.61ZM418.663 41.019a15.706 15.706 0 0 0-1.179-3.757 22.927 22.927 0 0 0-8.296-9.734c-3.624-2.357-8.08-3.518-13.407-3.518a26.298 26.298 0 0 0-10.433 1.961 22.421 22.421 0 0 0-7.772 5.415 23.761 23.761 0 0 0-4.936 8.076 28.385 28.385 0 0 0-1.702 9.861 26.627 26.627 0 0 0 1.834 9.998 23.893 23.893 0 0 0 5.107 7.988 23.318 23.318 0 0 0 7.948 5.322 26.835 26.835 0 0 0 10.262 1.922c4.123.05 8.211-.753 12.008-2.357a49.906 49.906 0 0 0 9.475-5.322l-6.598-7.205a32.032 32.032 0 0 1-7.205 2.577 35.463 35.463 0 0 1-7.684.88c-3.365 0-6.246-.88-8.648-2.64-2.401-1.759-3.58-4.323-3.58-7.683h34.41c.355-1.148.604-2.326.743-3.52.129-1.347.172-2.702.128-4.055a26.578 26.578 0 0 0-.475-4.21Zm-34.278 3.884a8.301 8.301 0 0 1 .919-3.449 9.64 9.64 0 0 1 2.314-3.013 10.993 10.993 0 0 1 3.518-2.2 12.143 12.143 0 0 1 4.628-.826 11.482 11.482 0 0 1 6.158 1.614 10.688 10.688 0 0 1 3.844 3.928c.397.602.694 1.265.88 1.962.203.636.306 1.299.308 1.966l-22.569.018ZM459.099 47.564a17.78 17.78 0 0 0-5.806-2.705 43.217 43.217 0 0 0-7.038-1.18l-3.361-.39c-3.079-.265-5.243-.744-6.421-1.4a3.257 3.257 0 0 1-1.791-3.052 3.962 3.962 0 0 1 2.142-3.58c1.395-.788 3.229-1.223 5.459-1.32h.783c1.147.012 2.289.143 3.409.392a20.75 20.75 0 0 1 7.117 3.056 13.58 13.58 0 0 1 2.793 2.358l7.117-6.633a22.758 22.758 0 0 0-8.797-6.681 29.034 29.034 0 0 0-11.749-2.441V23.9h-.739a27.506 27.506 0 0 0-7.728 1.046 20.08 20.08 0 0 0-6.378 3.08 15.026 15.026 0 0 0-4.324 4.93 13.684 13.684 0 0 0-1.57 6.633c0 4.324 1.614 7.684 4.838 9.998 3.224 2.314 7.816 3.752 13.71 4.275l2.75.308c2.753.258 4.85.738 6.29 1.439 1.442.7 2.199 1.966 2.199 3.884a3.895 3.895 0 0 1-2.142 3.712 11.374 11.374 0 0 1-5.279 1.135h-.479a28.431 28.431 0 0 1-4.632-.44 21.453 21.453 0 0 1-4.495-1.267 27.186 27.186 0 0 1-3.932-1.922 10.694 10.694 0 0 1-2.925-2.358l-7.117 6.682a17.291 17.291 0 0 0 4.06 3.884 26.336 26.336 0 0 0 5.458 2.969 36.665 36.665 0 0 0 6.506 1.918c2.357.476 4.756.71 7.161.699h.483c2.781.036 5.55-.362 8.208-1.179a18.767 18.767 0 0 0 6.246-3.228 14.286 14.286 0 0 0 3.928-4.931 13.923 13.923 0 0 0 1.399-6.114c0-2.705-.48-4.975-1.443-6.853a13.012 13.012 0 0 0-3.91-4.636ZM508.393 52.147a13.042 13.042 0 0 0-3.928-4.627 17.856 17.856 0 0 0-5.806-2.705 43.177 43.177 0 0 0-7.037-1.18l-3.361-.39c-3.079-.264-5.239-.744-6.417-1.4a3.266 3.266 0 0 1-1.791-3.052 3.958 3.958 0 0 1 2.138-3.58c1.399-.788 3.233-1.223 5.459-1.32h.787a16.21 16.21 0 0 1 3.405.396 19.74 19.74 0 0 1 3.668 1.174 20.4 20.4 0 0 1 3.448 1.879 13.702 13.702 0 0 1 2.798 2.357l7.117-6.598a22.811 22.811 0 0 0-8.797-6.681 29.032 29.032 0 0 0-11.745-2.441v-.132h-.743a27.527 27.527 0 0 0-7.728 1.047 20.074 20.074 0 0 0-6.374 3.079 14.948 14.948 0 0 0-4.323 4.93 13.684 13.684 0 0 0-1.571 6.633c0 4.324 1.615 7.685 4.839 9.998 3.224 2.314 7.812 3.752 13.71 4.276l2.749.308c2.749.26 4.839.743 6.286 1.438 1.447.695 2.199 1.966 2.199 3.888a3.897 3.897 0 0 1-2.142 3.708 11.356 11.356 0 0 1-5.278 1.135h-.48a28.371 28.371 0 0 1-4.627-.44 21.503 21.503 0 0 1-4.5-1.267 27.38 27.38 0 0 1-3.928-1.922 10.789 10.789 0 0 1-2.925-2.353l-7.117 6.677a17.309 17.309 0 0 0 4.06 3.884 26.125 26.125 0 0 0 5.459 2.97 36.539 36.539 0 0 0 6.505 1.917c2.357.476 4.757.71 7.161.7h.493c2.78.035 5.549-.363 8.207-1.18a18.68 18.68 0 0 0 6.246-3.228 14.264 14.264 0 0 0 3.928-4.93A13.91 13.91 0 0 0 509.836 59c.013-2.705-.479-4.975-1.443-6.853ZM236.509 48.786c0 4.716-1.047 8.208-3.145 10.39-2.098 2.182-4.931 3.316-8.467 3.316-3.365 0-6.026-.914-8.036-2.837-2.01-1.922-3.013-5.15-3.013-9.734v-25.23h-12.532V50.71a32.711 32.711 0 0 0 1.399 9.734 21.12 21.12 0 0 0 4.104 7.592 18.23 18.23 0 0 0 6.765 4.89c2.665 1.18 5.81 1.76 9.347 1.76 3.422.04 6.809-.69 9.91-2.137a16.319 16.319 0 0 0 3.668-2.398v3.836h12.532V24.722h-12.532v24.064ZM306.604 20.254a7.117 7.117 0 1 0-.04-14.235 7.117 7.117 0 0 0 .04 14.235ZM171.714 23.97a25.017 25.017 0 0 0-11.7 2.885V6.011h-12.483v67.874h12.483v-2.323a25.225 25.225 0 1 0 11.7-47.592Zm0 38.364a13.123 13.123 0 0 1-12.908-15.667 13.129 13.129 0 0 1 10.305-10.329 13.127 13.127 0 0 1 11.866 22.142 13.124 13.124 0 0 1-9.263 3.854Z"/></svg>